<svg width="397" height="454" viewBox="0 0 397 454" fill="none" xmlns="http://www.w3.org/2000/svg">
<path d="M178 1.00001C166.7 2.10001 145.8 6.80001 134.5 10.7C115.5 17.3 98.1 26.4 80.6 38.8C72.6 44.5 48.7 67.4 44 73.9C42.6 75.8 40.5 78.5 39.4 79.9C35.4 84.7 26.2 99.7 21.7 108.6C-1.1 153.5 -5.9 205.1 8.1 253.6C21.6 300.7 51.1 339.7 93.9 366.9C115.9 380.9 146.1 391.7 173 395.1C186.8 396.8 213.3 396.6 227.4 394.6C240.7 392.7 238.3 392 247 400C254.1 406.5 276.8 423.9 286 430C302 440.5 311 444.3 330.5 449C341.9 451.7 363.7 454.7 364.7 453.6C365.6 452.7 356.6 443 339.8 426.5C319.2 406.3 310.4 396.2 301.8 383L294.9 372.5L297.2 370.7C298.5 369.7 302.9 366.7 307 364.1C345 339.9 375.6 298.4 388.6 253.5C394 234.9 397.8 204.2 396.6 190C391.8 135.9 373 91.5 340.6 58.2C316.5 33.4 288.1 17.5 254.5 10.3C244.1 8.00001 240 7.70001 224 7.60001C198.9 7.50001 186 10.2 167.5 19.7C161.2 22.9 152.3 28.4 151 29.9C150.7 30.3 148.7 31.8 146.5 33.4C141.4 37.2 124.2 53.9 122.8 56.4C121.8 58.2 122 58.2 125.1 56.1C134.4 50 154.7 43 169.6 40.9C202.6 36.2 238.3 50.2 264.5 78.1C271.1 85.2 271.7 85.9 279.5 97.6C310.9 145 313.7 209.4 286.2 255C283.7 259.1 279.1 265.7 275.9 269.5C270.1 276.7 260 286 258.1 286C257.5 286 255.9 283.7 254.5 280.9C248.8 269.8 239 256.2 229.9 246.9C222.1 239 208.3 232.5 201.2 233.4C196.3 234 190.1 235.8 187 237.4C184.8 238.6 183.5 238.5 177 236.9C172.9 235.8 166.6 234.6 163.1 234.3L156.8 233.7L164.4 241.5C172.1 249.4 183.7 265.4 188.2 274.5C192.7 283.3 198.9 304.4 197.3 305.3C195.8 306.2 182.6 304 173.8 301.5C147.9 294.1 124.4 276.5 106.9 251.5C93.3 232.2 85.6 212.7 80.3 184.6C78.1 172.7 77.7 167.7 77.7 153C77.7 138 78.1 133.7 80.3 122.9C83.5 107.7 87.4 96.7 94.1 84.1C99.8 73.5 101.5 71 111.6 59C131.6 35.3 158.6 15 184 4.50001C188.5 2.70001 192.4 1.00001 192.7 0.600005C193.5 -0.0999946 188.2 5.44439e-06 178 1.00001Z" fill="white"/>
</svg>
